<svg width="529" height="1057" viewBox="0 0 529 1057" fill="none" xmlns="http://www.w3.org/2000/svg">
<g clip-path="url(#clip0_28_6)">
<path d="M-125.07 8314.51L-221.766 8225.39C-319.098 8136.22 -511.535 7958.07 -562.631 7792.77C-613.09 7627.52 -520.616 7475.27 -480.191 7318.28C-439.128 7161.35 -451.706 6999.55 -423.695 6841.44C-395.684 6683.32 -330.269 6528.61 -354.307 6365.77C-379.299 6202.83 -493.744 6031.77 -479.74 5872.39C-464.781 5713.09 -321.374 5565.46 -189.426 5416.79C-58.4344 5268.04 61.0977 5118.24 62.0498 4957.67C63.0019 4797.1 -51.4427 4626.04 -115.431 4459.56C-178.464 4293.17 -191.042 4131.37 -215.079 3968.53C-240.071 3805.6 -276.524 3641.62 -236.575 3484.6C-196.627 3327.57 -77.0952 3177.77 -76.1431 3017.2C-75.191 2856.62 -189.636 2685.56 -240.731 2520.26C-291.19 2355.02 -276.709 2195.67 -145.239 2046.96C-13.7699 1898.25 234.688 1760.17 288.166 1604.37C341.643 1448.57 200.14 1275.05 149.681 1109.81C98.585 944.505 140.125 787.621 154.129 628.234C169.088 468.934 156.51 307.132 119.58 143.116C82.0139 -20.9572 18.503 -187.389 85.0322 -342.002C150.925 -496.673 348.449 -639.381 466.389 -789.322C584.33 -939.262 625.87 -1096.15 587.826 -1260.26C549.782 -1424.38 435.337 -1595.44 410.345 -1758.37C386.307 -1921.22 451.723 -2075.93 453.789 -2236.4C455.218 -2396.93 391.707 -2563.36 341.248 -2728.61C290.153 -2893.91 253.7 -3057.88 234.36 -3139.97L215.656 -3222L995.578 -3151.12L988.338 -3071.45C981.097 -2991.78 966.616 -2832.43 952.134 -2673.09C937.653 -2513.75 923.172 -2354.4 908.69 -2195.06C894.209 -2035.72 879.728 -1876.37 865.246 -1717.03C850.765 -1557.69 836.284 -1398.34 821.802 -1239C807.321 -1079.66 792.84 -920.313 778.358 -760.97C763.877 -601.626 749.396 -442.283 734.914 -282.94C720.433 -123.596 705.952 35.747 691.47 195.09C676.989 354.434 662.508 513.777 648.026 673.12C633.545 832.464 619.064 991.807 604.582 1151.15C590.101 1310.49 575.62 1469.84 561.138 1629.18C546.657 1788.52 532.176 1947.87 517.694 2107.21C503.213 2266.55 488.732 2425.9 474.25 2585.24C459.769 2744.58 445.288 2903.93 430.806 3063.27C416.325 3222.61 401.844 3381.96 387.362 3541.3C372.881 3700.64 358.4 3859.99 343.918 4019.33C329.437 4178.67 314.956 4338.02 300.474 4497.36C285.993 4656.7 271.512 4816.05 257.03 4975.39C242.549 5134.73 228.068 5294.08 213.586 5453.42C199.105 5612.76 184.624 5772.11 170.142 5931.45C155.661 6090.79 141.18 6250.14 126.698 6409.48C112.217 6568.82 97.7356 6728.17 83.2543 6887.51C68.773 7046.85 54.2916 7206.2 39.8103 7365.54C25.329 7524.88 10.8476 7684.23 -3.6337 7843.57C-18.115 8002.91 -32.5964 8162.26 -39.837 8241.93L-47.0777 8321.6L-125.07 8314.51Z" fill="url(#paint0_linear_28_6)"/>
</g>
<defs>
<linearGradient id="paint0_linear_28_6" x1="-426.476" y1="8314.73" x2="-1206.4" y2="8243.85" gradientUnits="userSpaceOnUse">
<stop stop-color="#1488CC"/>
<stop offset="1" stop-color="#2B32B2"/>
</linearGradient>
<clipPath id="clip0_28_6">
<rect width="529" height="1057" fill="white"/>
</clipPath>
</defs>
</svg>
